<svg xmlns="http://www.w3.org/2000/svg" xmlns:xlink="http://www.w3.org/1999/xlink" viewBox="0,0,255.99057,255.99057" width="30px" height="30px" fill-rule="nonzero"><g fill="#dddddd" fill-rule="nonzero" stroke="none" stroke-width="1" stroke-linecap="butt" stroke-linejoin="miter" stroke-miterlimit="10" stroke-dasharray="" stroke-dashoffset="0" font-family="none" font-weight="none" font-size="none" text-anchor="none" style="mix-blend-mode: normal"><path d="M0,255.99057v-255.99057h255.99057v255.99057z" id="bgRectangle"></path></g><g fill="none" fill-rule="nonzero" stroke="none" stroke-width="1" stroke-linecap="butt" stroke-linejoin="miter" stroke-miterlimit="10" stroke-dasharray="" stroke-dashoffset="0" font-family="none" font-weight="none" font-size="none" text-anchor="none" style="mix-blend-mode: normal"><g transform="scale(8.53333,8.53333)"><path d="M2.5,2.5h25v25h-25z" fill="#ffffff"></path><path d="M27,3v24h-24v-24h24M28,2h-26v26h26v-26z" fill="#ffffff"></path><path d="M20,27v-9h3.424l0.504,-4h-3.928v-2.444c0,-1.132 0.37,-1.904 1.994,-1.904l2.006,-0.001v-3.497c-0.358,-0.048 -1.523,-0.154 -2.953,-0.154c-2.985,0 -5.047,1.822 -5.047,5.169v2.831h-3.358v4h3.358v9z" fill="#1b79f2"></path></g></g></svg>